<?xml version="1.0" encoding="UTF-8"?>
<svg width="496px" height="70px" viewBox="0 0 496 70" version="1.1" xmlns="http://www.w3.org/2000/svg" xmlns:xlink="http://www.w3.org/1999/xlink">
    <!-- Generator: Sketch 42 (36781) - http://www.bohemiancoding.com/sketch -->
    <title>propertydata</title>
    <desc>Created with Sketch.</desc>
    <defs></defs>
    <g id="Page-1" stroke="none" stroke-width="1" fill="none" fill-rule="evenodd">
        <g id="propertydata">
            <path d="M22,52 C35,52.0000006 43.9994545,46.9999997 44,43 C44.0001364,41.9999713 44.0137711,35 44,36 C44.0000546,36.0235617 43.9994545,36 43.9994558,36.0705962 C43,41.0000001 35,44.9999997 22,44.9999996 C9,44.9999995 1,41 -1.25766064e-12,36 C-1.25767452e-12,36 -1.25013888e-12,42 -1.25767452e-12,43 C-1.2868942e-12,47 9,51.9999994 22,52 L22,52 Z" id="section_low" fill="#2B984F"></path>
            <path d="M22,42 C35,42.0000006 43.9994545,36.9999997 44,33 C44.0001364,31.9999713 44.0137711,25 44,26 C44.0000546,26.0235617 43.9994545,26 43.9994558,26.0705962 C43,31.0000001 35,34.9999997 22,34.9999996 C9,34.9999995 1,31 -1.25766064e-12,26 C-1.25767452e-12,26 -1.25013888e-12,32 -1.25767452e-12,33 C-1.2868942e-12,37 9,41.9999994 22,42 L22,42 Z" id="section_mid" fill="#2B984F"></path>
            <path d="M22,32 C35,32.0000006 43.9994545,26.9999997 44,23 C44.0001364,21.9999713 44.0137711,15 44,16 C44.0000546,16.0235617 43.9994545,16 43.9994558,16.0705962 C43,21.0000001 35,24.9999997 22,24.9999996 C9,24.9999995 1,21 -1.25766064e-12,16 C-1.25767452e-12,16 -1.25013888e-12,22 -1.25767452e-12,23 C-1.2868942e-12,27 9,31.9999994 22,32 L22,32 Z" id="section_top" fill="#4CB83B"></path>
            <ellipse id="top" fill="#2B984F" cx="22" cy="12" rx="22" ry="10"></ellipse>
            <g id="text" transform="translate(78.000000, 0.000000)">
                <path d="M0.37,0.44 L17.8,0.44 C20.9733492,0.44 23.5866564,0.87166235 25.64,1.735 C27.6933436,2.59833765 29.3149941,3.69499335 30.505,5.025 C31.695006,6.35500665 32.523331,7.84832505 32.99,9.505 C33.456669,11.1616749 33.69,12.7599923 33.69,14.3 C33.69,15.8400077 33.456669,17.438325 32.99,19.095 C32.523331,20.7516749 31.695006,22.2449933 30.505,23.575 C29.3149941,24.9050066 27.6933436,26.0016623 25.64,26.865 C23.5866564,27.7283377 20.9733492,28.16 17.8,28.16 L7.09,28.16 L7.09,50 L0.37,50 L0.37,0.44 Z M7.09,22.28 L15.91,22.28 C17.2166732,22.28 18.5116603,22.175001 19.795,21.965 C21.0783398,21.754999 22.2216617,21.3700028 23.225,20.81 C24.2283384,20.2499972 25.0333303,19.4450053 25.64,18.395 C26.2466697,17.3449947 26.55,15.9800084 26.55,14.3 C26.55,12.6199916 26.2466697,11.2550052 25.64,10.205 C25.0333303,9.15499475 24.2283384,8.3500028 23.225,7.79 C22.2216617,7.2299972 21.0783398,6.84500105 19.795,6.635 C18.5116603,6.42499895 17.2166732,6.32 15.91,6.32 L7.09,6.32 L7.09,22.28 Z M40.0833333,16.82 L46.3833333,16.82 L46.3833333,21.93 L46.5233333,21.93 C46.9433354,21.0433289 47.5033298,20.238337 48.2033333,19.515 C48.9033368,18.791663 49.6849957,18.1733359 50.5483333,17.66 C51.411671,17.1466641 52.3566615,16.7383348 53.3833333,16.435 C54.4100051,16.1316651 55.4366615,15.98 56.4633333,15.98 C57.4900051,15.98 58.4233291,16.1199986 59.2633333,16.4 L58.9833333,23.19 C58.4699974,23.0499993 57.9566692,22.9333338 57.4433333,22.84 C56.9299974,22.7466662 56.4166692,22.7 55.9033333,22.7 C52.8233179,22.7 50.4666748,23.5633247 48.8333333,25.29 C47.1999918,27.0166753 46.3833333,29.6999818 46.3833333,33.34 L46.3833333,50 L40.0833333,50 L40.0833333,16.82 Z M69.6466667,33.41 C69.6466667,35.0900084 69.9033308,36.6416595 70.4166667,38.065 C70.9300026,39.4883405 71.6533287,40.7016617 72.5866667,41.705 C73.5200047,42.7083384 74.6633266,43.5016638 76.0166667,44.085 C77.3700068,44.6683362 78.8866583,44.96 80.5666667,44.96 C82.2466751,44.96 83.7633266,44.6683362 85.1166667,44.085 C86.4700068,43.5016638 87.6133287,42.7083384 88.5466667,41.705 C89.4800047,40.7016617 90.2033308,39.4883405 90.7166667,38.065 C91.2300026,36.6416595 91.4866667,35.0900084 91.4866667,33.41 C91.4866667,31.7299916 91.2300026,30.1783404 90.7166667,28.755 C90.2033308,27.3316595 89.4800047,26.1183384 88.5466667,25.115 C87.6133287,24.1116617 86.4700068,23.3183363 85.1166667,22.735 C83.7633266,22.1516637 82.2466751,21.86 80.5666667,21.86 C78.8866583,21.86 77.3700068,22.1516637 76.0166667,22.735 C74.6633266,23.3183363 73.5200047,24.1116617 72.5866667,25.115 C71.6533287,26.1183384 70.9300026,27.3316595 70.4166667,28.755 C69.9033308,30.1783404 69.6466667,31.7299916 69.6466667,33.41 Z M62.9266667,33.41 C62.9266667,30.9833212 63.3816621,28.7200105 64.2916667,26.62 C65.2016712,24.5199895 66.4499921,22.6766746 68.0366667,21.09 C69.6233413,19.5033254 71.4899893,18.2550045 73.6366667,17.345 C75.7833441,16.4349955 78.093321,15.98 80.5666667,15.98 C83.0400124,15.98 85.3499893,16.4349955 87.4966667,17.345 C89.6433441,18.2550045 91.5099921,19.5033254 93.0966667,21.09 C94.6833413,22.6766746 95.9316621,24.5199895 96.8416667,26.62 C97.7516712,28.7200105 98.2066667,30.9833212 98.2066667,33.41 C98.2066667,35.8366788 97.7516712,38.111656 96.8416667,40.235 C95.9316621,42.3583439 94.6833413,44.2016589 93.0966667,45.765 C91.5099921,47.3283411 89.6433441,48.5649954 87.4966667,49.475 C85.3499893,50.3850045 83.0400124,50.84 80.5666667,50.84 C78.093321,50.84 75.7833441,50.3850045 73.6366667,49.475 C71.4899893,48.5649954 69.6233413,47.3283411 68.0366667,45.765 C66.4499921,44.2016589 65.2016712,42.3583439 64.2916667,40.235 C63.3816621,38.111656 62.9266667,35.8366788 62.9266667,33.41 Z M105.93,16.82 L112.23,16.82 L112.23,21.58 L112.37,21.58 C113.583339,19.8066578 115.251656,18.4300049 117.375,17.45 C119.498344,16.4699951 121.679989,15.98 123.92,15.98 C126.486679,15.98 128.808323,16.4233289 130.885,17.31 C132.961677,18.1966711 134.734993,19.4333254 136.205,21.02 C137.675007,22.6066746 138.806663,24.461656 139.6,26.585 C140.393337,28.7083439 140.79,30.9833212 140.79,33.41 C140.79,35.8833457 140.393337,38.1816561 139.6,40.305 C138.806663,42.4283439 137.675007,44.2716589 136.205,45.835 C134.734993,47.3983412 132.961677,48.6233289 130.885,49.51 C128.808323,50.3966711 126.486679,50.84 123.92,50.84 C121.539988,50.84 119.30001,50.3383384 117.2,49.335 C115.099989,48.3316617 113.490006,46.9666753 112.37,45.24 L112.23,45.24 L112.23,69.74 L105.93,69.74 L105.93,16.82 Z M123.15,21.86 C121.469992,21.86 119.95334,22.1516637 118.6,22.735 C117.24666,23.3183363 116.103338,24.1116617 115.17,25.115 C114.236662,26.1183384 113.513336,27.3316595 113,28.755 C112.486664,30.1783404 112.23,31.7299916 112.23,33.41 C112.23,35.0900084 112.486664,36.6416595 113,38.065 C113.513336,39.4883405 114.236662,40.7016617 115.17,41.705 C116.103338,42.7083384 117.24666,43.5016638 118.6,44.085 C119.95334,44.6683362 121.469992,44.96 123.15,44.96 C124.830008,44.96 126.34666,44.6683362 127.7,44.085 C129.05334,43.5016638 130.196662,42.7083384 131.13,41.705 C132.063338,40.7016617 132.786664,39.4883405 133.3,38.065 C133.813336,36.6416595 134.07,35.0900084 134.07,33.41 C134.07,31.7299916 133.813336,30.1783404 133.3,28.755 C132.786664,27.3316595 132.063338,26.1183384 131.13,25.115 C130.196662,24.1116617 129.05334,23.3183363 127.7,22.735 C126.34666,22.1516637 124.830008,21.86 123.15,21.86 Z M153.273333,35.72 C153.273333,37.1666739 153.58833,38.484994 154.218333,39.675 C154.848336,40.8650059 155.676662,41.8799958 156.703333,42.72 C157.730005,43.5600042 158.919993,44.213331 160.273333,44.68 C161.626673,45.146669 163.026659,45.38 164.473333,45.38 C166.433343,45.38 168.136659,44.9250045 169.583333,44.015 C171.030007,43.1049954 172.359994,41.9033408 173.573333,40.41 L178.333333,44.05 C174.833316,48.5766893 169.933365,50.84 163.633333,50.84 C161.019987,50.84 158.651677,50.3966711 156.528333,49.51 C154.404989,48.6233289 152.608341,47.3983411 151.138333,45.835 C149.668326,44.2716588 148.536671,42.4283439 147.743333,40.305 C146.949996,38.1816561 146.553333,35.8833457 146.553333,33.41 C146.553333,30.9366543 146.984996,28.638344 147.848333,26.515 C148.711671,24.391656 149.901659,22.5483411 151.418333,20.985 C152.935008,19.4216589 154.743323,18.1966711 156.843333,17.31 C158.943344,16.4233289 161.229988,15.98 163.703333,15.98 C166.643348,15.98 169.128323,16.4933282 171.158333,17.52 C173.188343,18.5466718 174.85666,19.8883251 176.163333,21.545 C177.470007,23.2016749 178.414997,25.0683229 178.998333,27.145 C179.58167,29.221677 179.873333,31.3333226 179.873333,33.48 L179.873333,35.72 L153.273333,35.72 Z M173.153333,30.68 C173.106666,29.279993 172.885002,27.9966725 172.488333,26.83 C172.091665,25.6633275 171.496671,24.6483377 170.703333,23.785 C169.909996,22.9216623 168.918339,22.2450024 167.728333,21.755 C166.538327,21.2649975 165.150008,21.02 163.563333,21.02 C162.023326,21.02 160.611673,21.3116637 159.328333,21.895 C158.044994,22.4783363 156.960004,23.236662 156.073333,24.17 C155.186662,25.103338 154.498336,26.141661 154.008333,27.285 C153.518331,28.4283391 153.273333,29.5599944 153.273333,30.68 L173.153333,30.68 Z M187.246667,16.82 L193.546667,16.82 L193.546667,21.93 L193.686667,21.93 C194.106669,21.0433289 194.666663,20.238337 195.366667,19.515 C196.06667,18.791663 196.848329,18.1733359 197.711667,17.66 C198.575004,17.1466641 199.519995,16.7383348 200.546667,16.435 C201.573338,16.1316651 202.599995,15.98 203.626667,15.98 C204.653338,15.98 205.586662,16.1199986 206.426667,16.4 L206.146667,23.19 C205.633331,23.0499993 205.120003,22.9333338 204.606667,22.84 C204.093331,22.7466662 203.580003,22.7 203.066667,22.7 C199.986651,22.7 197.630008,23.5633247 195.996667,25.29 C194.363325,27.0166753 193.546667,29.6999818 193.546667,33.34 L193.546667,50 L187.246667,50 L187.246667,16.82 Z M230.74,22.28 L221.71,22.28 L221.71,37.33 C221.71,38.263338 221.733333,39.1849955 221.78,40.095 C221.826667,41.0050046 222.001665,41.8216631 222.305,42.545 C222.608335,43.268337 223.074997,43.8516645 223.705,44.295 C224.335003,44.7383356 225.256661,44.96 226.47,44.96 C227.21667,44.96 227.986663,44.8900007 228.78,44.75 C229.573337,44.6099993 230.296663,44.3533352 230.95,43.98 L230.95,49.72 C230.20333,50.1400021 229.235006,50.4316659 228.045,50.595 C226.854994,50.7583342 225.933337,50.84 225.28,50.84 C222.853321,50.84 220.975007,50.5016701 219.645,49.825 C218.314993,49.14833 217.335003,48.2733387 216.705,47.2 C216.074997,46.1266613 215.701667,44.9250067 215.585,43.595 C215.468333,42.2649934 215.41,40.9233401 215.41,39.57 L215.41,22.28 L208.13,22.28 L208.13,16.82 L215.41,16.82 L215.41,7.51 L221.71,7.51 L221.71,16.82 L230.74,16.82 L230.74,22.28 Z M234.683333,16.82 L241.963333,16.82 L251.833333,42.72 L251.973333,42.72 L261.353333,16.82 L268.143333,16.82 L252.393333,57.14 C251.833331,58.5866739 251.250003,59.904994 250.643333,61.095 C250.036664,62.2850059 249.313338,63.2999958 248.473333,64.14 C247.633329,64.9800042 246.618339,65.633331 245.428333,66.1 C244.238327,66.566669 242.780009,66.8 241.053333,66.8 C240.119995,66.8 239.175005,66.7416673 238.218333,66.625 C237.261662,66.5083327 236.340004,66.2633352 235.453333,65.89 L236.223333,60.15 C237.48334,60.6633359 238.743327,60.92 240.003333,60.92 C240.983338,60.92 241.811663,60.791668 242.488333,60.535 C243.165003,60.2783321 243.748331,59.9050024 244.238333,59.415 C244.728336,58.9249976 245.136665,58.3533366 245.463333,57.7 C245.790002,57.0466634 246.116665,56.3000042 246.443333,55.46 L248.473333,50.21 L234.683333,16.82 Z" id="Property" fill="#2B984F"></path>
                <path d="M277.25,1.44 L294.54,1.44 C298.040017,1.44 301.10832,1.8366627 303.745,2.63 C306.38168,3.4233373 308.668324,4.48499335 310.605,5.815 C312.541676,7.14500665 314.15166,8.6733247 315.435,10.4 C316.71834,12.1266753 317.73333,13.8999909 318.48,15.72 C319.22667,17.5400091 319.763332,19.3599909 320.09,21.18 C320.416668,23.0000091 320.58,24.6799923 320.58,26.22 C320.58,29.3933492 319.996672,32.4616518 318.83,35.425 C317.663328,38.3883481 315.936678,41.0249884 313.65,43.335 C311.363322,45.6450115 308.52835,47.499993 305.145,48.9 C301.76165,50.300007 297.853356,51 293.42,51 L277.25,51 L277.25,1.44 Z M283.97,44.7 L292.44,44.7 C295.286681,44.7 297.981654,44.3150039 300.525,43.545 C303.068346,42.7749962 305.296657,41.6200077 307.21,40.08 C309.123343,38.5399923 310.639994,36.6150116 311.76,34.305 C312.880006,31.9949884 313.44,29.3000154 313.44,26.22 C313.44,24.6333254 313.183336,22.778344 312.67,20.655 C312.156664,18.5316561 311.18834,16.5133429 309.765,14.6 C308.34166,12.6866571 306.370013,11.0650066 303.85,9.735 C301.329987,8.40499335 298.063353,7.74 294.05,7.74 L283.97,7.74 L283.97,44.7 Z M328.583333,21.88 C330.356676,20.2466585 332.409988,19.0216707 334.743333,18.205 C337.076678,17.3883292 339.409988,16.98 341.743333,16.98 C344.170012,16.98 346.258325,17.2833303 348.008333,17.89 C349.758342,18.4966697 351.193328,19.3133282 352.313333,20.34 C353.433339,21.3666718 354.261664,22.5449933 354.798333,23.875 C355.335003,25.2050066 355.603333,26.5933261 355.603333,28.04 L355.603333,44.98 C355.603333,46.1466725 355.626666,47.2199951 355.673333,48.2 C355.72,49.1800049 355.79,50.1133289 355.883333,51 L350.283333,51 C350.143333,49.3199916 350.073333,47.6400084 350.073333,45.96 L349.933333,45.96 C348.533326,48.1066774 346.876676,49.6233289 344.963333,50.51 C343.04999,51.3966711 340.833346,51.84 338.313333,51.84 C336.773326,51.84 335.30334,51.6300021 333.903333,51.21 C332.503326,50.7899979 331.278339,50.1600042 330.228333,49.32 C329.178328,48.4799958 328.350003,47.4416729 327.743333,46.205 C327.136664,44.9683271 326.833333,43.5333415 326.833333,41.9 C326.833333,39.7533226 327.311662,37.9566739 328.268333,36.51 C329.225005,35.0633261 330.531658,33.8850046 332.188333,32.975 C333.845008,32.0649954 335.781656,31.4116686 337.998333,31.015 C340.215011,30.6183314 342.583321,30.42 345.103333,30.42 L349.723333,30.42 L349.723333,29.02 C349.723333,28.1799958 349.560002,27.3400042 349.233333,26.5 C348.906665,25.6599958 348.41667,24.90167 347.763333,24.225 C347.109997,23.5483299 346.293338,23.0116686 345.313333,22.615 C344.333328,22.2183313 343.166673,22.02 341.813333,22.02 C340.599994,22.02 339.538338,22.1366655 338.628333,22.37 C337.718329,22.6033345 336.890004,22.8949983 336.143333,23.245 C335.396663,23.5950017 334.720003,24.003331 334.113333,24.47 C333.506664,24.936669 332.923336,25.3799979 332.363333,25.8 L328.583333,21.88 Z M346.363333,35.04 C344.869993,35.04 343.341674,35.1216659 341.778333,35.285 C340.214992,35.4483342 338.791673,35.763331 337.508333,36.23 C336.224994,36.696669 335.175004,37.3499958 334.358333,38.19 C333.541663,39.0300042 333.133333,40.1033268 333.133333,41.41 C333.133333,43.3233429 333.774994,44.6999958 335.058333,45.54 C336.341673,46.3800042 338.079989,46.8 340.273333,46.8 C342.000009,46.8 343.469994,46.5083363 344.683333,45.925 C345.896673,45.3416638 346.876663,44.583338 347.623333,43.65 C348.370004,42.716662 348.906665,41.6783391 349.233333,40.535 C349.560002,39.391661 349.723333,38.2600056 349.723333,37.14 L349.723333,35.04 L346.363333,35.04 Z M382.366667,23.28 L373.336667,23.28 L373.336667,38.33 C373.336667,39.263338 373.36,40.1849954 373.406667,41.095 C373.453334,42.0050046 373.628332,42.821663 373.931667,43.545 C374.235002,44.2683369 374.701664,44.8516645 375.331667,45.295 C375.96167,45.7383356 376.883327,45.96 378.096667,45.96 C378.843337,45.96 379.613329,45.8900007 380.406667,45.75 C381.200004,45.6099993 381.92333,45.3533352 382.576667,44.98 L382.576667,50.72 C381.829996,51.1400021 380.861673,51.4316659 379.671667,51.595 C378.481661,51.7583341 377.560003,51.84 376.906667,51.84 C374.479988,51.84 372.601673,51.5016701 371.271667,50.825 C369.94166,50.14833 368.96167,49.2733387 368.331667,48.2 C367.701664,47.1266613 367.328334,45.9250067 367.211667,44.595 C367.094999,43.2649933 367.036667,41.9233401 367.036667,40.57 L367.036667,23.28 L359.756667,23.28 L359.756667,17.82 L367.036667,17.82 L367.036667,8.51 L373.336667,8.51 L373.336667,17.82 L382.366667,17.82 L382.366667,23.28 Z M390.44,21.88 C392.213342,20.2466585 394.266655,19.0216707 396.6,18.205 C398.933345,17.3883292 401.266655,16.98 403.6,16.98 C406.026679,16.98 408.114991,17.2833303 409.865,17.89 C411.615009,18.4966697 413.049994,19.3133282 414.17,20.34 C415.290006,21.3666718 416.118331,22.5449933 416.655,23.875 C417.191669,25.2050066 417.46,26.5933261 417.46,28.04 L417.46,44.98 C417.46,46.1466725 417.483333,47.2199951 417.53,48.2 C417.576667,49.1800049 417.646666,50.1133289 417.74,51 L412.14,51 C411.999999,49.3199916 411.93,47.6400084 411.93,45.96 L411.79,45.96 C410.389993,48.1066774 408.733343,49.6233289 406.82,50.51 C404.906657,51.3966711 402.690013,51.84 400.17,51.84 C398.629992,51.84 397.160007,51.6300021 395.76,51.21 C394.359993,50.7899979 393.135005,50.1600042 392.085,49.32 C391.034995,48.4799958 390.20667,47.4416729 389.6,46.205 C388.99333,44.9683271 388.69,43.5333415 388.69,41.9 C388.69,39.7533226 389.168329,37.9566739 390.125,36.51 C391.081671,35.0633261 392.388325,33.8850046 394.045,32.975 C395.701675,32.0649954 397.638322,31.4116686 399.855,31.015 C402.071678,30.6183314 404.439987,30.42 406.96,30.42 L411.58,30.42 L411.58,29.02 C411.58,28.1799958 411.416668,27.3400042 411.09,26.5 C410.763332,25.6599958 410.273337,24.90167 409.62,24.225 C408.966663,23.5483299 408.150005,23.0116686 407.17,22.615 C406.189995,22.2183313 405.02334,22.02 403.67,22.02 C402.456661,22.02 401.395005,22.1366655 400.485,22.37 C399.574995,22.6033345 398.74667,22.8949983 398,23.245 C397.25333,23.5950017 396.57667,24.003331 395.97,24.47 C395.36333,24.936669 394.780003,25.3799979 394.22,25.8 L390.44,21.88 Z M408.22,35.04 C406.726659,35.04 405.198341,35.1216659 403.635,35.285 C402.071659,35.4483342 400.64834,35.763331 399.365,36.23 C398.08166,36.696669 397.031671,37.3499958 396.215,38.19 C395.398329,39.0300042 394.99,40.1033268 394.99,41.41 C394.99,43.3233429 395.63166,44.6999958 396.915,45.54 C398.19834,46.3800042 399.936656,46.8 402.13,46.8 C403.856675,46.8 405.326661,46.5083363 406.54,45.925 C407.753339,45.3416638 408.73333,44.583338 409.48,43.65 C410.22667,42.716662 410.763332,41.6783391 411.09,40.535 C411.416668,39.391661 411.58,38.2600056 411.58,37.14 L411.58,35.04 L408.22,35.04 Z" id="Data" fill="#4CB83B"></path>
            </g>
        </g>
    </g>
</svg>